<svg width="119" height="129" viewBox="0 0 119 129" fill="none" xmlns="http://www.w3.org/2000/svg">
<circle cx="59.5" cy="70.5" r="57.5" fill="#FFA113"/>
<circle cx="59.5" cy="70.5" r="57.5" fill="url(#paint0_radial_1046_638)"/>
<circle cx="59.5" cy="70.5" r="57.5" fill="#FDC35C"/>
<path d="M59.5793 128.44C51.3233 128.44 43.6913 127 36.6833 124.12C29.6753 121.24 23.5313 117.208 18.2513 112.024C13.0673 106.744 9.03531 100.6 6.15531 93.592C3.27531 86.584 1.83531 78.952 1.83531 70.696C1.83531 62.44 3.27531 54.856 6.15531 47.944C9.03531 40.936 13.0673 34.84 18.2513 29.656C23.5313 24.376 29.6753 20.296 36.6833 17.416C43.6913 14.536 51.3233 13.096 59.5793 13.096C67.8353 13.096 75.4193 14.536 82.3313 17.416C89.3393 20.296 95.4353 24.376 100.619 29.656C105.899 34.84 109.979 40.936 112.859 47.944C115.739 54.856 117.179 62.44 117.179 70.696C117.179 78.952 115.739 86.584 112.859 93.592C109.979 100.6 105.899 106.744 100.619 112.024C95.4353 117.208 89.3393 121.24 82.3313 124.12C75.4193 127 67.8353 128.44 59.5793 128.44ZM59.5793 119.8C66.4913 119.8 72.9233 118.6 78.8753 116.2C84.8273 113.704 90.0113 110.248 94.4273 105.832C98.9393 101.32 102.395 96.088 104.795 90.136C107.291 84.184 108.539 77.704 108.539 70.696C108.539 63.784 107.291 57.352 104.795 51.4C102.395 45.448 98.9393 40.264 94.4273 35.848C90.0113 31.336 84.8273 27.88 78.8753 25.48C72.9233 22.984 66.4913 21.736 59.5793 21.736C52.5713 21.736 46.0913 22.984 40.1393 25.48C34.1873 27.88 28.9553 31.336 24.4433 35.848C20.0273 40.264 16.5713 45.448 14.0753 51.4C11.6753 57.352 10.4753 63.784 10.4753 70.696C10.4753 77.704 11.6753 84.184 14.0753 90.136C16.5713 96.088 20.0273 101.32 24.4433 105.832C28.9553 110.248 34.1873 113.704 40.1393 116.2C46.0913 118.6 52.5713 119.8 59.5793 119.8Z" fill="#1D3557"/>
<mask id="path-4-outside-1_1046_638" maskUnits="userSpaceOnUse" x="76.2305" y="24.6993" width="30" height="40" fill="black">
<rect fill="white" x="76.2305" y="24.6993" width="30" height="40"/>
<path d="M94.8058 49.064L100.892 56.4839L102.564 32.6993L84.2305 48.0602L94.8058 49.064Z"/>
</mask>
<path d="M94.8058 49.064L100.892 56.4839L102.564 32.6993L84.2305 48.0602L94.8058 49.064Z" fill="#1D3557"/>
<path d="M100.892 56.4839L98.4976 58.448L103.435 64.4677L103.981 56.7011L100.892 56.4839ZM94.8058 49.064L97.2002 47.0999L96.3823 46.1027L95.0984 45.9809L94.8058 49.064ZM84.2305 48.0602L82.2415 45.6863L76.5638 50.4434L83.9378 51.1433L84.2305 48.0602ZM102.564 32.6993L105.654 32.9166L106.165 25.6422L100.575 30.3255L102.564 32.6993ZM103.287 54.5198L97.2002 47.0999L92.4113 51.028L98.4976 58.448L103.287 54.5198ZM95.0984 45.9809L84.5231 44.9771L83.9378 51.1433L94.5131 52.1471L95.0984 45.9809ZM86.2194 50.4341L104.553 35.0732L100.575 30.3255L82.2415 45.6863L86.2194 50.4341ZM99.4751 32.4821L97.8027 56.2667L103.981 56.7011L105.654 32.9166L99.4751 32.4821Z" fill="#FCBF49" mask="url(#path-4-outside-1_1046_638)"/>
<path fill-rule="evenodd" clip-rule="evenodd" d="M90.9762 48.7004L73.5157 75.8708L52.6422 65.3412L40.3164 82.8699L19.2979 57.6629L38.1489 103L53.5713 80.764L75.9312 99.8412L96.5346 51.171L100.893 56.4839L102.565 32.6993L84.231 48.0602L90.9762 48.7004Z" fill="#1D3557"/>
<defs>
<radialGradient id="paint0_radial_1046_638" cx="0" cy="0" r="1" gradientUnits="userSpaceOnUse" gradientTransform="translate(64.9762 48.5952) rotate(99.9042) scale(87.5549)">
<stop stop-color="#FCBF49"/>
<stop offset="1" stop-color="white" stop-opacity="0"/>
</radialGradient>
</defs>
</svg>
